<?xml version="1.0" standalone="no"?>
<!DOCTYPE svg PUBLIC "-//W3C//DTD SVG 20010904//EN"
 "http://www.w3.org/TR/2001/REC-SVG-20010904/DTD/svg10.dtd">
<svg version="1.0" xmlns="http://www.w3.org/2000/svg"
 width="1211.000000pt" height="1211.000000pt" viewBox="0 0 1211.000000 1211.000000"
 preserveAspectRatio="xMidYMid meet">
<metadata>
Created by potrace 1.11, written by Peter Selinger 2001-2013
</metadata>
<g transform="translate(0.000000,1211.000000) scale(0.100000,-0.100000)"
fill="#000000" stroke="none">
<path d="M2539 12056 c-1 0 -3 -1722 -6 -3826 l-4 -3825 319 1 319 1 -8 -46
c-4 -25 -10 -66 -13 -91 -3 -25 -8 -56 -10 -70 -3 -14 -14 -92 -26 -175 -12
-82 -23 -161 -25 -175 -2 -14 -9 -61 -15 -105 -7 -44 -13 -87 -15 -96 -2 -8
-6 -40 -9 -70 -3 -30 -8 -67 -11 -84 -9 -56 -15 -90 -20 -125 -2 -19 -16 -113
-30 -208 -14 -95 -27 -191 -30 -215 -3 -23 -7 -53 -10 -67 -3 -14 -7 -43 -10
-65 -2 -22 -6 -53 -9 -70 -2 -16 -10 -66 -16 -110 -6 -44 -13 -91 -15 -105 -3
-14 -11 -72 -19 -130 -8 -58 -17 -118 -20 -135 -4 -26 -17 -120 -31 -220 -2
-16 -16 -109 -30 -205 -14 -96 -27 -193 -30 -215 -3 -22 -8 -51 -10 -65 -2
-14 -7 -45 -10 -70 -3 -25 -8 -56 -10 -70 -3 -14 -7 -41 -9 -60 -6 -42 -25
-175 -31 -210 -4 -24 -10 -71 -21 -150 -3 -19 -7 -46 -9 -60 -3 -14 -7 -45
-10 -70 -3 -25 -8 -56 -10 -70 -2 -14 -7 -45 -10 -70 -3 -25 -7 -56 -10 -70
-2 -14 -6 -41 -9 -60 -3 -19 -19 -132 -36 -250 -17 -118 -33 -233 -36 -255 -3
-22 -7 -52 -9 -66 l-5 -26 264 0 263 -1 21 52 c12 28 33 85 47 126 14 41 30
84 35 95 4 11 41 110 80 220 39 110 78 216 85 235 8 19 27 73 44 120 16 47 34
96 39 110 6 14 25 66 42 115 17 50 35 99 40 110 4 11 13 36 20 55 7 19 16 44
20 55 5 11 86 234 180 495 95 261 187 516 205 565 34 91 112 305 148 405 10
30 42 116 69 190 28 74 51 140 53 145 1 6 5 17 8 25 3 8 21 58 40 110 19 52
56 154 82 225 26 72 62 171 80 220 98 270 172 475 216 596 l50 136 860 0 859
0 352 -701 c193 -386 530 -1056 748 -1491 218 -434 558 -1110 753 -1501 l357
-711 222 1 c157 1 222 4 221 12 -1 6 -27 114 -58 240 -31 126 -58 236 -60 244
-2 8 -27 107 -55 220 -28 113 -53 212 -55 220 -2 8 -20 80 -40 160 -20 80 -40
163 -45 185 -4 22 -29 123 -55 225 -26 102 -48 192 -50 200 -9 39 -184 747
-275 1110 -56 223 -104 416 -106 429 -3 14 -21 88 -41 165 -19 78 -36 148 -38
156 -2 8 -24 98 -50 200 -26 102 -48 192 -50 200 -2 8 -26 107 -54 219 -28
112 -51 207 -51 211 0 4 181 7 403 7 l402 0 1 531 c1 479 -1 532 -15 533 -9 0
-1201 1 -2648 1 -1887 1 -2633 4 -2634 12 -1 6 -2 1487 -2 3291 l-2 3280 -457
1 c-252 1 -458 1 -459 0z"/>
<path d="M3980 8974 l0 -3064 268 -2 c422 -2 1456 2 1467 6 7 2 10 1028 10
3062 l0 3059 -873 1 -872 2 0 -3064z"/>
<path d="M5905 12030 c-2 -4 -4 -1382 -4 -3063 l0 -3056 274 -1 275 0 0 90 0
90 320 0 320 0 1 33 c1 17 0 42 -1 55 l-1 22 275 0 c256 0 276 1 277 18 1 23
1 5572 0 5592 -1 13 -38 15 -276 15 l-275 0 0 55 0 56 -307 -1 c-170 0 -314
-4 -321 -8 -7 -5 -12 -5 -11 0 1 4 1 31 0 58 l-1 51 -271 0 c-149 0 -272 -3
-274 -6z"/>
<path d="M7821 9023 l0 -2232 274 0 275 0 0 149 0 150 320 0 320 0 1 28 c1 15
1 51 0 80 l-1 52 275 0 c213 0 275 3 276 13 4 65 1 3016 -4 3023 -3 6 -109 9
-264 9 -142 -1 -263 1 -269 3 -8 2 -12 58 -12 185 0 100 -1 187 -1 192 -1 7
-111 10 -321 10 l-320 0 0 285 0 285 -275 0 -274 0 0 -2232z"/>
</g>
</svg>
